<?xml version="1.0" encoding="UTF-8" standalone="no"?>
<svg
   viewBox="0 0 512 512"
   width="32"
   height="32"
   version="1.1"
   id="svg6"
   sodipodi:docname="icon.svg"
   inkscape:version="1.2.2 (b0a8486541, 2022-12-01)"
   xmlns:inkscape="http://www.inkscape.org/namespaces/inkscape"
   xmlns:sodipodi="http://sodipodi.sourceforge.net/DTD/sodipodi-0.dtd"
   xmlns="http://www.w3.org/2000/svg"
   xmlns:svg="http://www.w3.org/2000/svg">
  <defs
     id="defs10">
    <clipPath
       clipPathUnits="userSpaceOnUse"
       id="clipPath425">
      <rect
         style="fill:none;stroke:#ffffff;stroke-width:32;stroke-linejoin:round;paint-order:stroke markers fill"
         id="rect427"
         width="264.47662"
         height="317.75946"
         x="319.9978"
         y="101.04677"
         ry="16.825687" />
    </clipPath>
  </defs>
  <sodipodi:namedview
     id="namedview8"
     pagecolor="#ffffff"
     bordercolor="#666666"
     borderopacity="1.0"
     inkscape:showpageshadow="2"
     inkscape:pageopacity="0.0"
     inkscape:pagecheckerboard="0"
     inkscape:deskcolor="#d1d1d1"
     showgrid="false"
     inkscape:zoom="14.03125"
     inkscape:cx="18.03118"
     inkscape:cy="21.487751"
     inkscape:window-width="1920"
     inkscape:window-height="1011"
     inkscape:window-x="0"
     inkscape:window-y="0"
     inkscape:window-maximized="1"
     inkscape:current-layer="svg6" />
  <path
     id="rect2"
     style="fill:#171717;stroke-width:1.01994;fill-opacity:1"
     d="M 99.632004,6 H 412.368 C 464.24013,6 506,47.759874 506,99.632004 V 412.368 C 506,464.24013 464.24013,506 412.368,506 H 99.632004 C 47.759874,506 6,464.24013 6,412.368 V 99.632004 C 6,47.759874 47.759874,6 99.632004,6 Z" />
  <g
     id="g985"
     transform="translate(7.7950749,-3.5381958)">
    <path
       id="rect351"
       style="fill:none;stroke:#ffffff;stroke-width:32;stroke-linejoin:round;paint-order:stroke markers fill"
       d="M 85.558353,170.83006 H 291.74688 c 9.32143,0 16.82569,7.50426 16.82569,16.82569 v 142.23396 c 0,9.32143 -7.50426,16.82568 -16.82569,16.82568 H 85.558353 c -9.32143,0 -16.825687,-7.50425 -16.825687,-16.82568 V 187.65575 c 0,-9.32143 7.504257,-16.82569 16.825687,-16.82569 z" />
    <path
       id="path417"
       clip-path="url(#clipPath425)"
       style="fill:none;stroke:#ffffff;stroke-width:32;stroke-linejoin:round;paint-order:stroke markers fill"
       inkscape:transform-center-x="25.859787"
       inkscape:transform-center-y="-0.37991419"
       transform="translate(1.9377677,5.4036182)"
       d="m 425.73944,344.85525 -78.89543,-44.79048 -78.89543,-44.79046 78.2374,-45.93021 78.23739,-45.93021 0.65803,90.72068 z" />
  </g>
</svg>
